<?xml version="1.0" encoding="UTF-8"?>
<svg xmlns="http://www.w3.org/2000/svg" viewBox="0 0 100 100">
  <title>Valorant Logo</title>
  <path fill="#FF4655" d="M95.0003 50C95.0003 74.8529 74.8532 95 50.0003 95C25.1474 95 5.00031 74.8529 5.00031 50C5.00031 25.1471 25.1474 5 50.0003 5C74.8532 5 95.0003 25.1471 95.0003 50Z"/>
  <path fill="#101822" d="M70.0002 37.5V62.5H62.5002V45.8333H54.1669V62.5H45.8335V45.8333H37.5002V62.5H30.0002V37.5H37.5002V41.6667H45.8335V37.5H54.1669V41.6667H62.5002V37.5H70.0002Z"/>
  <path fill="white" d="M67.5002 35V60H60.0002V43.3333H51.6669V60H43.3335V43.3333H35.0002V60H27.5002V35H35.0002V39.1667H43.3335V35H51.6669V39.1667H60.0002V35H67.5002Z"/>
</svg>
